<?xml version="1.0" encoding="UTF-8" standalone="no"?> <svg width="43.7444mm" height="61.3833mm"  viewBox="0 0 124.136 174.136"  xmlns="http://www.w3.org/2000/svg" xmlns:xlink="http://www.w3.org/1999/xlink"  version="1.2" baseProfile="tiny"> <title>Generated with ETE http://etetoolkit.org</title> <desc>Generated with ETE http://etetoolkit.org</desc> <defs> </defs> <g fill="none" stroke="black" stroke-width="1" fill-rule="evenodd" stroke-linecap="square" stroke-linejoin="bevel" >      <g fill="none" stroke="none" transform="matrix(1,0,0,1,0,0)" font-family="Ubuntu" font-size="11pt" font-weight="400" font-style="normal"  > <rect x="0" y="0" width="124.136" height="174.136"/> </g>      <g fill="none" stroke="none" transform="matrix(1,0,0,1,62.0682,62.0682)" font-family="Ubuntu" font-size="11pt" font-weight="400" font-style="normal"  > <rect x="-61.0682" y="-61.0682" width="122.136" height="122.136"/> </g>              <g fill="none" stroke="#000000" stroke-opacity="1" stroke-width="1" stroke-linecap="butt" stroke-linejoin="bevel" transform="matrix(1,0,0,1,62.5226,59.5682)" font-family="Ubuntu" font-size="11pt" font-weight="400" font-style="normal"  > <path vector-effect="non-scaling-stroke" fill-rule="evenodd" d=""/> </g>                  <g fill="#008000" fill-opacity="1" stroke="#008000" stroke-opacity="1" stroke-width="1" stroke-linecap="square" stroke-linejoin="bevel" transform="matrix(1,0,0,1,62.5226,59.5682)" font-family="Ubuntu" font-size="11pt" font-weight="400" font-style="normal"  > <circle cx="2.5" cy="2.5" r="2.5"/> </g>                        <g fill="none" stroke="#000000" stroke-opacity="1" stroke-width="1" stroke-linecap="butt" stroke-linejoin="bevel" transform="matrix(1,0,0,1,68.0683,54.5682)" font-family="Ubuntu" font-size="11pt" font-weight="400" font-style="normal"  > <polyline fill="none" vector-effect="non-scaling-stroke" points="0,7.5 0.60588,7.5 " /> </g>      <g fill="#008000" fill-opacity="1" stroke="#008000" stroke-opacity="1" stroke-width="1" stroke-linecap="square" stroke-linejoin="bevel" transform="matrix(1,0,0,1,68.6742,59.5682)" font-family="Ubuntu" font-size="11pt" font-weight="400" font-style="normal"  > <circle cx="2.5" cy="2.5" r="2.5"/> </g>          <g fill="none" stroke="#000000" stroke-opacity="1" stroke-width="1" stroke-linecap="square" stroke-linejoin="bevel" transform="matrix(1,0,0,1,73.6742,54.5682)" font-family="Arial" font-size="10pt" font-weight="400" font-style="normal"  > <text fill="#000000" fill-opacity="1" stroke="none" xml:space="preserve" x="0" y="12" font-family="Arial" font-size="10pt" font-weight="400" font-style="normal"   >Bacteria</text> </g>                      <g fill="none" stroke="#000000" stroke-opacity="1" stroke-width="1" stroke-linecap="square" stroke-linejoin="bevel" transform="matrix(1,0,0,1,1,124.136)" font-family="Ubuntu" font-size="11pt" font-weight="400" font-style="normal"  > <polyline fill="none" vector-effect="none" points="0,5 50,5 " /> </g>      <g fill="none" stroke="#000000" stroke-opacity="1" stroke-width="1" stroke-linecap="square" stroke-linejoin="bevel" transform="matrix(1,0,0,1,1,124.136)" font-family="Ubuntu" font-size="11pt" font-weight="400" font-style="normal"  > <polyline fill="none" vector-effect="none" points="0,0 0,10 " /> </g>      <g fill="none" stroke="#000000" stroke-opacity="1" stroke-width="1" stroke-linecap="square" stroke-linejoin="bevel" transform="matrix(1,0,0,1,1,124.136)" font-family="Ubuntu" font-size="11pt" font-weight="400" font-style="normal"  > <polyline fill="none" vector-effect="none" points="50,0 50,10 " /> </g>      <g fill="none" stroke="#000000" stroke-opacity="1" stroke-width="1" stroke-linecap="square" stroke-linejoin="bevel" transform="matrix(1,0,0,1,1,134.136)" font-family="Ubuntu" font-size="11pt" font-weight="400" font-style="normal"  > <text fill="#000000" fill-opacity="1" stroke="none" xml:space="preserve" x="0" y="14" font-family="Ubuntu" font-size="11pt" font-weight="400" font-style="normal"   >82.5246</text> </g>     </g> </svg> 